  <svg width="364" height="277" viewBox="0 0 364 277" fill="none" xmlns="http://www.w3.org/2000/svg">
    <path d="M135.482 8.91153H228.518M135.482 8.91153H56.7346L9 59.3492L28.5 122C29.5 121 44.9291 103.938 65.7325 82.1374M135.482 8.91153C122.005 23.0803 102.515 44.5983 84.4025 63.603M228.518 8.91153C253.653 8.91153 313.954 8 313.954 8C313.954 8 341.622 39.1944 355 59.3492L337.062 122.244L316.995 98.241L301.489 80.6182M228.518 8.91153L284.766 63.9069M65.7325 82.1374L46.0931 155.971L55.4768 180.278M65.7325 82.1374C71.9229 75.6502 77.7485 70.5847 84.4025 63.603M65.7325 82.1374V110.395L87.1388 134.702M285.982 222.045L244.633 256.542L180.48 269L130.921 256.542L78.6257 222.045M285.982 222.045C281.847 218.885 211.385 148.577 181.536 118.902M285.982 222.045L304.833 181.19M78.6257 222.045L72.5448 212.789L57.6468 185.899L55.4768 180.278M78.6257 222.045C79.2628 221.147 98.8553 201.469 124.913 175.417M284.766 63.9069H275.037H256.186H238.248C234.626 67.5117 222.576 76.5443 218.485 80.6182M284.766 63.9069L301.489 80.6182M181.536 118.902C178.297 116.077 162.256 97.2895 145.515 80.922M181.536 118.902C194.569 105.91 207.29 91.7662 218.485 80.6182M181.536 118.902C162.244 138.135 142.162 158.172 124.913 175.417M84.4025 63.603H104.165H122.712C128.288 69.0796 137.773 73.3528 145.515 80.922M87.1388 134.702L55.4768 180.278M87.1388 134.702L122.712 101.518M145.515 80.922L180.48 63.226L218.485 80.6182M145.515 80.922L122.712 101.518M218.485 80.6182C218.894 80.2111 218.08 81.0213 218.485 80.6182ZM218.485 80.6182C220.235 83.0278 229.011 91.1718 238.815 100.976M301.489 80.6182L295.408 109.179L269.859 138.044M301.489 80.6182L311.522 155.971L304.833 181.19M304.833 181.19L283.854 154.756L238.815 100.976M124.913 175.417L161.021 196.23H196.594L239.856 176.632M238.815 100.976L252.234 85.1758L270.476 88.518V97.0256M122.712 101.518L110.55 85.1758L94.1318 88.518L92.3076 97.0256" stroke="black" stroke-opacity="0.91" stroke-width="15" />
  </svg>

