<svg version="1.0" xmlns="http://www.w3.org/2000/svg"
 width="587.000000pt" height="446.000000pt" viewBox="0 0 587.000000 446.000000"
 preserveAspectRatio="xMidYMid meet">

<g transform="translate(0.000000,446.000000) scale(0.100000,-0.100000)"
fill="#000000" stroke="none">
<path d="M2624 4443 l-1780 -3 -413 -436 c-227 -240 -415 -442 -417 -449 -5
-12 284 -966 331 -1092 l27 -73 29 20 c15 11 126 123 246 249 120 126 219 226
220 222 2 -3 -53 -216 -121 -473 l-125 -468 103 -262 c88 -228 119 -295 234
-502 217 -390 155 -327 662 -663 l435 -287 175 -46 c96 -26 288 -75 426 -109
l252 -63 523 102 c288 56 534 104 547 107 13 3 182 138 375 300 l352 294 160
347 c158 342 162 350 219 565 l57 218 -66 496 c-36 272 -64 497 -62 500 3 2
117 -129 253 -291 157 -188 251 -292 255 -284 4 7 82 277 174 600 l168 587
-76 108 c-96 136 -298 389 -492 617 l-150 176 -370 -3 c-203 -1 -1171 -3
-2151 -4z m2583 -295 c157 -186 346 -423 430 -539 l62 -86 -119 -419 c-66
-230 -122 -425 -125 -432 -3 -8 -61 53 -142 150 -247 295 -355 409 -892 939
l-531 524 208 5 c114 3 381 7 593 8 l387 2 129 -152z m-3233 120 c-106 -123
-697 -752 -835 -888 -98 -96 -293 -296 -434 -445 -141 -148 -260 -271 -263
-272 -9 -3 -264 833 -260 851 2 7 165 185 363 395 l360 381 544 0 544 0 -19
-22z m2077 -350 c208 -204 379 -375 379 -380 0 -4 -137 -8 -304 -8 -179 0
-307 -4 -311 -9 -8 -14 -274 -231 -290 -237 -8 -3 -147 55 -310 130 -164 75
-302 136 -307 136 -6 0 -134 -63 -285 -141 l-274 -141 -42 34 c-23 19 -78 59
-122 88 -44 29 -108 75 -141 101 l-61 49 -237 2 -237 3 346 373 346 372 735 0
736 0 379 -372z m-2049 -580 c41 -29 106 -75 146 -103 39 -27 71 -53 69 -57
-4 -12 -235 -218 -245 -218 -4 0 -46 52 -93 115 -46 63 -89 115 -96 115 -24 0
-348 -71 -354 -78 -9 -11 -42 -173 -36 -179 9 -8 130 -32 138 -27 4 2 10 22
14 44 5 30 12 41 28 45 12 3 52 11 88 19 l67 13 65 -88 66 -88 -72 -69 c-192
-184 -397 -372 -405 -372 -5 0 -70 70 -145 155 l-137 154 0 210 0 209 133 126
132 125 282 1 282 0 73 -52z m1157 -63 c133 -60 241 -112 241 -115 0 -12 -462
-490 -473 -489 -7 0 -49 42 -95 94 -46 51 -146 159 -223 239 -76 81 -139 150
-139 154 0 8 431 231 441 228 4 0 115 -50 248 -111z m1548 3 l113 -113 -45
-209 -45 -209 -107 -121 c-218 -246 -237 -266 -244 -264 -5 2 -315 369 -398
471 -12 15 -9 22 21 60 20 23 55 63 79 89 l44 47 75 -14 c127 -25 120 -21 120
-60 l0 -35 70 0 70 0 0 100 c0 55 -3 100 -7 100 -5 0 -91 16 -193 35 -102 19
-188 35 -192 35 -3 0 -50 -51 -103 -112 -53 -62 -98 -113 -99 -113 -2 0 -53
48 -115 107 l-111 107 127 105 128 105 349 1 349 0 114 -112z m-2253 -325 c62
-65 170 -181 240 -257 l128 -139 -789 -789 c-751 -751 -789 -787 -803 -768
-23 30 -277 492 -284 516 -5 17 47 98 239 375 l245 354 213 199 c333 311 680
626 690 626 5 0 60 -53 121 -117z m1237 -30 c146 -148 705 -809 1016 -1201
l161 -202 -122 -265 c-66 -146 -124 -265 -129 -265 -10 0 -1577 1552 -1577
1562 0 14 482 518 495 518 6 0 76 -66 156 -147z m1249 -605 l49 -367 -32 -121
c-18 -67 -35 -122 -38 -123 -4 -1 -79 88 -167 198 -89 110 -186 230 -217 267
l-57 67 192 217 c106 119 197 231 203 248 11 30 12 30 15 6 2 -14 26 -190 52
-392z m-3811 145 l152 -173 -202 -291 c-111 -160 -205 -287 -209 -282 -3 4
-26 58 -49 120 l-42 112 90 341 c50 188 91 344 91 347 0 14 29 -16 169 -174z
m2621 -833 c0 -3 -132 -65 -292 -138 l-293 -132 -280 0 -281 0 -149 86 c-83
48 -192 111 -244 141 l-94 55 403 403 403 403 414 -406 c227 -223 413 -409
413 -412z m-1461 -260 l278 -160 314 0 314 0 333 151 c183 83 336 149 341 147
12 -4 664 -649 659 -652 -1 -2 -136 -114 -299 -249 l-296 -247 -510 -99 -511
-99 -390 98 -391 97 -123 80 c-68 44 -244 160 -392 258 l-268 178 328 328
c181 181 330 329 332 329 2 0 128 -72 281 -160z"/>
</g>
</svg>
